<mxfile host="app.diagrams.net" modified="2023-07-31T20:39:52.213Z" agent="Mozilla/5.0 (Macintosh; Intel Mac OS X 10_15_7) AppleWebKit/537.36 (KHTML, like Gecko) Chrome/114.0.0.0 Safari/537.36 Edg/114.0.1823.82" version="21.6.6" etag="jnUFSy2YHBIJk-G-83EO" type="github">
  <diagram name="Page-1" id="g0LTOVXDPOOkTLn5LSSC">
    <mxGraphModel>
      <root>
        <mxCell id="0" />
        <mxCell id="1" parent="0" />
      </root>
    </mxGraphModel>
  </diagram>
</mxfile>
